{"title":"Over The Hedge-2006.m-720p x264 400mb MP4","uid":6324526,"size":419536711,"categoryP":"video","categoryS":"hd___movies","magnet":"?xt=urn:btih:d778bfd8aec14233ccaf7a53ddc69cbfdf167d77&amp;dn=Over+The+Hedge-2006.m-720p+x264+400mb+MP4&amp;tr=udp%3A%2F%2Ftracker.openbittorrent.com%3A80&amp;tr=udp%3A%2F%2Fopen.demonii.com%3A1337&amp;tr=udp%3A%2F%2Ftracker.coppersurfer.tk%3A6969&amp;tr=udp%3A%2F%2Fexodus.desync.com%3A6969","seeders":1,"leechers":0,"uploader":"720pMiNiKiNgS","files":3,"time":1303063244,"description":"Format : MPEG-4\nFormat profile : Base Media\nCodec ID : isom\nFile size : 400 MiB\nDuration : 1h 23mn\nOverall bit rate : 672 Kbps\nEncoded date : UTC 2010-08-06 09:45:14\nTagged date : UTC 2010-08-06 09:45:14\n\nVideo\nID : 1\nFormat : AVC\nFormat/Info : Advanced Video Codec\nFormat profile : &lt;a class=&quot;__cf_email__&quot; href=&quot;/cdn-cgi/l/email-protection&quot; data-cfemail=&quot;266e4f414e666a150817&quot;&gt;[email&amp;#160;protected]&lt;/a&gt;&lt;script cf-hash='f9e31' type=&quot;text/javascript&quot;&gt;\n/* &lt;![CDATA[ */!function(){try{var t=&quot;currentScript&quot;in document?document.currentScript:function(){for(var t=document.getElementsByTagName(&quot;script&quot;),e=t.length;e--;)if(t[e].getAttribute(&quot;cf-hash&quot;))return t[e]}();if(t&amp;&amp;t.previousSibling){var e,r,n,i,c=t.previousSibling,a=c.getAttribute(&quot;data-cfemail&quot;);if(a){for(e=&quot;&quot;,r=parseInt(a.substr(0,2),16),n=2;a.length-n;n+=2)i=parseInt(a.substr(n,2),16)^r,e+=String.fromCharCode(i);e=document.createTextNode(e),c.parentNode.replaceChild(e,c)}}}catch(u){}}();/* ]]&gt; */&lt;/script&gt;\nFormat settings, CABAC : Yes\nFormat settings, ReFrames : 4 frames\nCodec ID : avc1\nCodec ID/Info : Advanced Video Coding\nDuration : 1h 23mn\nBit rate mode : Variable\nBit rate : 634 Kbps\nMaximum bit rate : 2 705 Kbps\nWidth : 1 280 pixels\nHeight : 720 pixels\nDisplay aspect ratio : 16:9\nFrame rate mode : Constant\nFrame rate : 23.976 fps\nColor space : YUV\nChroma subsampling : 4:2:0\nBit depth : 8 bits\nScan type : Progressive\nBits/(Pixel*Frame) : 0.029\nStream size : 377 MiB (94%)\nTitle : Imported with GPAC 0.4.6-DEV (internal rev. 5)\nWriting library : x264 core 98 r1649 c54c47d\nEncoding settings : cabac=1 / ref=3 / deblock=1:-2:-1 / analyse=0x3:0x113 / me=umh / subme=5 / psy=1 / psy_rd=0.00:0.00 / mixed_ref=1 / me_range=12 / chroma_me=1 / trellis=1 / 8x8dct=1 / cqm=0 / deadzone=21,11 / fast_pskip=1 / chroma_qp_offset=0 / threads=1 / sliced_threads=0 / nr=0 / decimate=1 / interlaced=0 / constrained_intra=0 / bframes=16 / b_pyramid=2 / b_adapt=1 / b_bias=0 / direct=3 / weightb=1 / weightp=2 / keyint=250 / keyint_min=25 / scenecut=40 / intra_refresh=0 / rc_lookahead=40 / rc=2pass / mbtree=1 / bitrate=634 / ratetol=1.0 / qcomp=0.60 / qpmin=10 / qpmax=51 / qpstep=4 / cplxblur=20.0 / qblur=0.5 / ip_ratio=1.40 / aq=2:1.00\nEncoded date : UTC 2010-08-06 09:45:14\nTagged date : UTC 2010-08-06 09:46:07\n\nAudio\nID : 2\nFormat : AAC\nFormat/Info : Advanced Audio Codec\nFormat version : Version 4\nFormat profile : LC\nFormat settings, SBR : Yes\nFormat settings, PS : No\nCodec ID : 40\nDuration : 1h 23mn\nBit rate mode : Variable\nBit rate : 35.0 Kbps\nMaximum bit rate : 56.9 Kbps\nChannel(s) : 2 channels\nChannel positions : Front: L R\nSampling rate : 48.0 KHz\nStream size : 20.8 MiB (5%)\nEncoded date : UTC 2010-08-06 09:46:04\nTagged date : UTC 2010-08-06 09:46:0\n\nplz seed after download enjoy","torrent":{"xt":"urn:btih:d778bfd8aec14233ccaf7a53ddc69cbfdf167d77","amp;dn":"Over+The+Hedge-2006.m-720p+x264+400mb+MP4","amp;tr":["udp%3A%2F%2Ftracker.openbittorrent.com%3A80","udp%3A%2F%2Fopen.demonii.com%3A1337","udp%3A%2F%2Ftracker.coppersurfer.tk%3A6969","udp%3A%2F%2Fexodus.desync.com%3A6969"],"infoHash":"d778bfd8aec14233ccaf7a53ddc69cbfdf167d77","infoHashBuffer":{"type":"Buffer","data":[215,120,191,216,174,193,66,51,204,175,122,83,221,198,156,191,223,22,125,119]},"announce":[],"urlList":[]}}